<mxfile host="app.diagrams.net" modified="2023-06-06T14:56:40.323Z" agent="Mozilla/5.0 (Windows NT 10.0; Win64; x64) AppleWebKit/537.36 (KHTML, like Gecko) Chrome/114.0.0.0 Safari/537.36" etag="4VRB1H7PRZIcJv33Lubw" version="21.3.7" type="github">
  <diagram id="C5RBs43oDa-KdzZeNtuy" name="Page-1">
    <mxGraphModel dx="1050" dy="581" grid="1" gridSize="10" guides="1" tooltips="1" connect="1" arrows="1" fold="1" page="1" pageScale="1" pageWidth="827" pageHeight="1169" math="0" shadow="0">
      <root>
        <mxCell id="WIyWlLk6GJQsqaUBKTNV-0" />
        <mxCell id="WIyWlLk6GJQsqaUBKTNV-1" parent="WIyWlLk6GJQsqaUBKTNV-0" />
        <mxCell id="WIyWlLk6GJQsqaUBKTNV-2" value="" style="rounded=0;html=1;jettySize=auto;orthogonalLoop=1;fontSize=11;endArrow=block;endFill=0;endSize=8;strokeWidth=1;shadow=0;labelBackgroundColor=none;edgeStyle=orthogonalEdgeStyle;" parent="WIyWlLk6GJQsqaUBKTNV-1" source="WIyWlLk6GJQsqaUBKTNV-3" target="WIyWlLk6GJQsqaUBKTNV-6" edge="1">
          <mxGeometry relative="1" as="geometry" />
        </mxCell>
        <mxCell id="WIyWlLk6GJQsqaUBKTNV-3" value="L&#39;utilisateur tape un caractère" style="rounded=1;whiteSpace=wrap;html=1;fontSize=12;glass=0;strokeWidth=1;shadow=0;" parent="WIyWlLk6GJQsqaUBKTNV-1" vertex="1">
          <mxGeometry x="160" y="80" width="120" height="40" as="geometry" />
        </mxCell>
        <mxCell id="WIyWlLk6GJQsqaUBKTNV-5" value="&amp;lt;= 2" style="edgeStyle=orthogonalEdgeStyle;rounded=0;html=1;jettySize=auto;orthogonalLoop=1;fontSize=11;endArrow=block;endFill=0;endSize=8;strokeWidth=1;shadow=0;labelBackgroundColor=none;entryX=1;entryY=0.5;entryDx=0;entryDy=0;" parent="WIyWlLk6GJQsqaUBKTNV-1" source="WIyWlLk6GJQsqaUBKTNV-6" target="WIyWlLk6GJQsqaUBKTNV-3" edge="1">
          <mxGeometry y="20" relative="1" as="geometry">
            <mxPoint as="offset" />
            <mxPoint x="320" y="210" as="targetPoint" />
            <Array as="points">
              <mxPoint x="300" y="210" />
              <mxPoint x="300" y="100" />
            </Array>
          </mxGeometry>
        </mxCell>
        <mxCell id="2NsL6l3-Vmyemjl1hrUA-1" style="edgeStyle=orthogonalEdgeStyle;rounded=0;orthogonalLoop=1;jettySize=auto;html=1;exitX=0.5;exitY=1;exitDx=0;exitDy=0;entryX=0.5;entryY=0;entryDx=0;entryDy=0;" edge="1" parent="WIyWlLk6GJQsqaUBKTNV-1" source="WIyWlLk6GJQsqaUBKTNV-6" target="2NsL6l3-Vmyemjl1hrUA-0">
          <mxGeometry relative="1" as="geometry" />
        </mxCell>
        <mxCell id="WIyWlLk6GJQsqaUBKTNV-6" value="Nombre de lettres tapées ?" style="rhombus;whiteSpace=wrap;html=1;shadow=0;fontFamily=Helvetica;fontSize=12;align=center;strokeWidth=1;spacing=6;spacingTop=-4;" parent="WIyWlLk6GJQsqaUBKTNV-1" vertex="1">
          <mxGeometry x="170" y="170" width="100" height="80" as="geometry" />
        </mxCell>
        <mxCell id="2NsL6l3-Vmyemjl1hrUA-3" value="Pour chaque recette" style="edgeStyle=orthogonalEdgeStyle;rounded=0;orthogonalLoop=1;jettySize=auto;html=1;exitX=0.5;exitY=1;exitDx=0;exitDy=0;" edge="1" parent="WIyWlLk6GJQsqaUBKTNV-1" source="2NsL6l3-Vmyemjl1hrUA-0" target="2NsL6l3-Vmyemjl1hrUA-2">
          <mxGeometry relative="1" as="geometry" />
        </mxCell>
        <mxCell id="2NsL6l3-Vmyemjl1hrUA-0" value="Parcourir les recettes" style="rounded=1;whiteSpace=wrap;html=1;" vertex="1" parent="WIyWlLk6GJQsqaUBKTNV-1">
          <mxGeometry x="160" y="300" width="120" height="60" as="geometry" />
        </mxCell>
        <mxCell id="2NsL6l3-Vmyemjl1hrUA-9" value="non" style="edgeStyle=orthogonalEdgeStyle;rounded=0;orthogonalLoop=1;jettySize=auto;html=1;exitX=1;exitY=0.5;exitDx=0;exitDy=0;entryX=0;entryY=0.5;entryDx=0;entryDy=0;" edge="1" parent="WIyWlLk6GJQsqaUBKTNV-1" source="2NsL6l3-Vmyemjl1hrUA-2" target="2NsL6l3-Vmyemjl1hrUA-8">
          <mxGeometry relative="1" as="geometry" />
        </mxCell>
        <mxCell id="2NsL6l3-Vmyemjl1hrUA-11" value="oui" style="edgeStyle=orthogonalEdgeStyle;rounded=0;orthogonalLoop=1;jettySize=auto;html=1;exitX=0.5;exitY=1;exitDx=0;exitDy=0;entryX=0.5;entryY=0;entryDx=0;entryDy=0;" edge="1" parent="WIyWlLk6GJQsqaUBKTNV-1" source="2NsL6l3-Vmyemjl1hrUA-2" target="2NsL6l3-Vmyemjl1hrUA-5">
          <mxGeometry relative="1" as="geometry" />
        </mxCell>
        <mxCell id="2NsL6l3-Vmyemjl1hrUA-2" value="Le groupe de lettres est-il présent &lt;br&gt;dans le titre, les ingrédients ou la description de la recette ?" style="rhombus;whiteSpace=wrap;html=1;" vertex="1" parent="WIyWlLk6GJQsqaUBKTNV-1">
          <mxGeometry x="80" y="430" width="280" height="180" as="geometry" />
        </mxCell>
        <mxCell id="2NsL6l3-Vmyemjl1hrUA-10" style="edgeStyle=orthogonalEdgeStyle;rounded=0;orthogonalLoop=1;jettySize=auto;html=1;exitX=1;exitY=0.5;exitDx=0;exitDy=0;entryX=0;entryY=0.5;entryDx=0;entryDy=0;" edge="1" parent="WIyWlLk6GJQsqaUBKTNV-1" source="2NsL6l3-Vmyemjl1hrUA-5" target="2NsL6l3-Vmyemjl1hrUA-8">
          <mxGeometry relative="1" as="geometry" />
        </mxCell>
        <mxCell id="2NsL6l3-Vmyemjl1hrUA-5" value="Ajouter la recette dans les résultats" style="rounded=1;whiteSpace=wrap;html=1;" vertex="1" parent="WIyWlLk6GJQsqaUBKTNV-1">
          <mxGeometry x="160" y="680" width="120" height="60" as="geometry" />
        </mxCell>
        <mxCell id="2NsL6l3-Vmyemjl1hrUA-12" style="edgeStyle=orthogonalEdgeStyle;rounded=0;orthogonalLoop=1;jettySize=auto;html=1;exitX=0.5;exitY=0;exitDx=0;exitDy=0;entryX=1;entryY=0.5;entryDx=0;entryDy=0;" edge="1" parent="WIyWlLk6GJQsqaUBKTNV-1" source="2NsL6l3-Vmyemjl1hrUA-8" target="2NsL6l3-Vmyemjl1hrUA-0">
          <mxGeometry relative="1" as="geometry" />
        </mxCell>
        <mxCell id="2NsL6l3-Vmyemjl1hrUA-13" value="non" style="edgeLabel;html=1;align=center;verticalAlign=middle;resizable=0;points=[];" vertex="1" connectable="0" parent="2NsL6l3-Vmyemjl1hrUA-12">
          <mxGeometry x="-0.8954" y="-3" relative="1" as="geometry">
            <mxPoint as="offset" />
          </mxGeometry>
        </mxCell>
        <mxCell id="2NsL6l3-Vmyemjl1hrUA-18" style="edgeStyle=orthogonalEdgeStyle;rounded=0;orthogonalLoop=1;jettySize=auto;html=1;exitX=0.5;exitY=1;exitDx=0;exitDy=0;entryX=0.5;entryY=0;entryDx=0;entryDy=0;" edge="1" parent="WIyWlLk6GJQsqaUBKTNV-1" source="2NsL6l3-Vmyemjl1hrUA-8" target="2NsL6l3-Vmyemjl1hrUA-15">
          <mxGeometry relative="1" as="geometry" />
        </mxCell>
        <mxCell id="2NsL6l3-Vmyemjl1hrUA-21" value="oui" style="edgeLabel;html=1;align=center;verticalAlign=middle;resizable=0;points=[];" vertex="1" connectable="0" parent="2NsL6l3-Vmyemjl1hrUA-18">
          <mxGeometry x="-0.2356" y="1" relative="1" as="geometry">
            <mxPoint as="offset" />
          </mxGeometry>
        </mxCell>
        <mxCell id="2NsL6l3-Vmyemjl1hrUA-8" value="Fin des recettes ?" style="rhombus;whiteSpace=wrap;html=1;" vertex="1" parent="WIyWlLk6GJQsqaUBKTNV-1">
          <mxGeometry x="470" y="670" width="80" height="80" as="geometry" />
        </mxCell>
        <mxCell id="2NsL6l3-Vmyemjl1hrUA-19" value="non" style="edgeStyle=orthogonalEdgeStyle;rounded=0;orthogonalLoop=1;jettySize=auto;html=1;exitX=1;exitY=0.5;exitDx=0;exitDy=0;entryX=0;entryY=0.5;entryDx=0;entryDy=0;" edge="1" parent="WIyWlLk6GJQsqaUBKTNV-1" source="2NsL6l3-Vmyemjl1hrUA-15" target="2NsL6l3-Vmyemjl1hrUA-17">
          <mxGeometry relative="1" as="geometry" />
        </mxCell>
        <mxCell id="2NsL6l3-Vmyemjl1hrUA-20" value="oui" style="edgeStyle=orthogonalEdgeStyle;rounded=0;orthogonalLoop=1;jettySize=auto;html=1;exitX=0.5;exitY=1;exitDx=0;exitDy=0;entryX=0.5;entryY=0;entryDx=0;entryDy=0;" edge="1" parent="WIyWlLk6GJQsqaUBKTNV-1" source="2NsL6l3-Vmyemjl1hrUA-15" target="2NsL6l3-Vmyemjl1hrUA-16">
          <mxGeometry relative="1" as="geometry" />
        </mxCell>
        <mxCell id="2NsL6l3-Vmyemjl1hrUA-15" value="Il y a des recettes dans les résultats ?" style="rhombus;whiteSpace=wrap;html=1;" vertex="1" parent="WIyWlLk6GJQsqaUBKTNV-1">
          <mxGeometry x="415" y="840" width="190" height="80" as="geometry" />
        </mxCell>
        <mxCell id="2NsL6l3-Vmyemjl1hrUA-16" value="Afficher la liste des recettes contenues dans les résultats" style="rounded=1;whiteSpace=wrap;html=1;" vertex="1" parent="WIyWlLk6GJQsqaUBKTNV-1">
          <mxGeometry x="450" y="980" width="120" height="60" as="geometry" />
        </mxCell>
        <mxCell id="2NsL6l3-Vmyemjl1hrUA-17" value="Afficher &quot;Aucune recette ne contient &#39;xxx&#39;&quot;" style="rounded=1;whiteSpace=wrap;html=1;" vertex="1" parent="WIyWlLk6GJQsqaUBKTNV-1">
          <mxGeometry x="690" y="850" width="120" height="60" as="geometry" />
        </mxCell>
      </root>
    </mxGraphModel>
  </diagram>
</mxfile>
